<svg xmlns:xlink="http://www.w3.org/1999/xlink" xmlns="http://www.w3.org/2000/svg" viewBox="0 0 24 24"   fill="currentColor" width="1"  height="1" ><path d="M19.6 10.8s1.6.1 1.6-.9c0-1.3-2.2-2.4-2.2-2.4s.3-.7.6-1.1c.2-.4.8-2 .9-2.4.1-.5 0-.6 0-.6-.1 1-1.7 3.8-1.9 3.9-1.6-.7-3.7-.9-3.7-.9S12.8 2 10.8 2C8.9 2 8.9 5.8 8.9 5.8s-.6-1.1-1.3-1.1c-1 0-1.3 1.5-1.3 3.2-2 0-3.7.4-3.8.5-.1 0-.6.4-.4.3.4-.1 2.5-.5 4.3-.3.1 1.6 1 3.6 1 3.6s-2 2.9-2 4.9c0 .5.2 1.5 1.6 1.5 1.2 0 2.5-.7 2.8-.9-.2.3-.4.9-.4 1.2 0 .2.1.9 1 .9 1.2 0 2.5-.9 2.5-.9s1.2 2.1 2.3 3c.3.3.6.3.6.3s-1.1-1-2.4-3.6c1.3-.8 2.6-2.7 2.6-2.7h1.4c1.9 0 4.6-.4 4.6-1.9 0-1.6-2.4-3-2.4-3zm.2-.9c0 .6-.5.5-.5.5h-.4l-1.2-.6s.7-1.1.9-1.4c0 .1 1.2.8 1.2 1.5zm-8-5.7c.9 0 2.2 2.1 2.2 2.1s-2-.2-3.7.8c0-1.5.5-2.9 1.5-2.9zM8.2 5.9c.3 0 .6.3.7.6 0 .3.1 1.4.1 1.4l-1.7-.1c0-1.5.6-1.9.9-1.9zM8 16.3c-.9 0-1.1-.5-1.1-1 0-1 .8-2.5.8-2.5s.9 1.9 2.5 2.7c-.7.6-1.4.8-2.2.8zm3 2c-.6 0-.7-.4-.7-.5 0-.3.2-.6.2-.6s1.1-.7 1.1-.8l.8 1.5c0-.1-.8.4-1.4.4zm1.9-.8c-.4-.7-.7-1.4-.7-1.4s1.6.1 2.4-.8c-.5.2-1.4.5-2.4.4 2.1-1.8 3.3-3.1 4.3-4.5-.1-.1-.6-.4-.7-.5-.6.7-3 3.3-5.2 4.5-2.8-1.5-3.4-6-3.4-6.9l1.5.1s-.6 1-.6 1.8c0 .7.1.8.1.8s0-1.3.8-2.3c.6 3.3 1.3 4.9 1.7 5.9.3-.1.7-.3.7-.3s-1.4-4.1-1.3-6.8c.6-.3 1.6-.7 2.7-.7 2.8 0 5.1 1.2 5.1 1.2L17 9.2s-.8-1.4-1.9-1.7c.6.4 1.2 1 1.6 1.8-2.3-.9-5.1-1.4-6-1.5-.1.3-.1.8-.1.8s3.8.7 6.5 2.3c.1 3.7-3.7 6.3-4.2 6.6zm3.6-2.6s1.2-1.5 1.2-3.6c0 0 1.9 1.2 1.9 2.3-.1 1.4-3.1 1.3-3.1 1.3z" fill="#757575"></path></svg>