<svg xmlns:xlink="http://www.w3.org/1999/xlink" xmlns="http://www.w3.org/2000/svg" viewBox="0 0 24 24"   fill="currentColor" width="24"  height="24" ><g stroke-linecap="round" stroke-linejoin="round" stroke-width="2px" stroke="#757575" fill="none" stroke-miterlimit="10"><path d="M5.11 3.425L6.722 4.75l1.645 1.756-.404 2.74-2.594 1.312L4 11.726l.667 1.138 1.307 1.4.706 2.473-1.963 1.647-.359 1.528M20.32 4.805l-1.477.838-3 .357-2.284-1.838-.62-1.813L12.127 1M19.007 12.903l-.928 2.098-.954 2.151-1.763 1.641-2.339.15-1.394-1.69.468-2.17-.403-2.143 1.593-1.997 2.227-.782 2.358.564 1.135 2.178z" stroke="#757575" fill="none" stroke-width="2px"></path><circle cx="12" cy="12" r="11" stroke="#757575" fill="none" stroke-width="2px"></circle></g></svg>