<svg xmlns:xlink="http://www.w3.org/1999/xlink" xmlns="http://www.w3.org/2000/svg" viewBox="0 0 24 24"   fill="currentColor" width="1"  height="1" ><path d="M12.3 15.148v1.727a.337.337 0 01-.34.336h-1.722a.337.337 0 01-.34-.336v-1.727c0-.187.153-.336.34-.336h1.723c.187 0 .34.149.34.336zm.598-8.398h-1.761a.333.333 0 00-.336.336v1.766c0 .187.148.335.336.335h1.761c.188 0 .34-.148.34-.335V7.125c0-.187-.152-.375-.34-.375zm9.528-3.375v17.25a1.33 1.33 0 01-1.313 1.313H2.887a1.33 1.33 0 01-1.313-1.313V3.375c0-.71.602-1.313 1.313-1.313h18.226c.75 0 1.313.563 1.313 1.313zM7.762 13.648H4.727a.916.916 0 00-.903.903v2.96c0 .489.414.903.903.903h3.035V17.25H5.324a.333.333 0 01-.336-.336v-1.727c0-.187.149-.335.336-.335h2.438zm.902-2.062V6.488a.916.916 0 00-.902-.902h-3a.912.912 0 00-.899.902v3c0 .489.41.899.899.899h2.027v-1.16H5.363a.34.34 0 01-.34-.34V7.125c0-.187.153-.336.34-.336h1.762c.187 0 .336.149.336.336v3.863a.333.333 0 01-.336.336h-3.3v1.164h3.902c.523.035.937-.375.937-.902zm4.797 2.965a.912.912 0 00-.899-.903h-2.96a.916.916 0 00-.903.903v2.96c0 .489.414.903.903.903h2.96a.912.912 0 00.899-.902zm.937-5.063v-3a.912.912 0 00-.898-.902h-3a.912.912 0 00-.898.902v3c0 .489.41.899.898.899h3a.886.886 0 00.898-.899zm5.739 4.16h-4.875a.912.912 0 00-.899.903v3.863h1.16v-3.227c0-.187.153-.335.34-.335h.825v3.597h1.164v-3.222c0-.188.148-.34.335-.34h.825v3.601h1.164zm0-2.062V6.488a.912.912 0 00-.899-.902h-3a.916.916 0 00-.902.902v3c0 .489.414.899.902.899h2.024v-1.16h-1.387a.337.337 0 01-.336-.34V7.125c0-.187.148-.336.336-.336h1.762c.187 0 .34.149.34.336v3.863a.337.337 0 01-.34.336h-3.301v1.164h3.902c.489.035.899-.375.899-.902zm0 0" fill="#FFFFFF"></path></svg>