<svg xmlns:xlink="http://www.w3.org/1999/xlink" xmlns="http://www.w3.org/2000/svg" viewBox="0 0 24 24"   fill="currentColor" width="1"  height="1" ><path d="M19.16 7.396c-.46 0-.855.173-1.184.518-.33.345-.493.756-.493 1.233s.164.88.493 1.217.724.51 1.184.51.863-.173 1.2-.51c.337-.337.51-.748.51-1.217 0-.477-.173-.888-.51-1.233a1.623 1.623 0 00-1.2-.518zm3.535.222a3.975 3.975 0 00-.83-1.25 3.863 3.863 0 00-1.217-.847 3.646 3.646 0 00-1.496-.31c-.518 0-1.003.098-1.472.303-.46.197-.863.477-1.2.822-.337.345-.608.756-.814 1.233s-.312.978-.337 1.513l-2.484 3.594h-.026a2.9 2.9 0 00-1.52.436l-4.515-2.77a2.937 2.937 0 00-.732-1.744c-.435-.502-.995-.814-1.67-.946a3.137 3.137 0 00-1.175.058c-.37.09-.715.255-1.01.477-.305.23-.56.51-.766.84a2.661 2.661 0 00-.386 1.093c-.074.403-.058.798.04 1.176.1.386.256.732.47 1.044s.477.567.798.78.674.355 1.07.43c.287.057.558.057.83.015.262-.05.525-.115.772-.206l4.86 2.796c.09.748.41 1.373.96 1.883.552.502 1.21.756 1.974.756.41 0 .79-.082 1.15-.247.355-.164.667-.386.938-.658.263-.27.477-.592.64-.962.157-.362.24-.756.24-1.176l3.337-2.665h.025c.534 0 1.036-.1 1.496-.304.46-.196.872-.476 1.217-.838.345-.354.625-.773.83-1.25.208-.476.307-.986.307-1.537a3.71 3.71 0 00-.305-1.537zM4.665 9.402a1.43 1.43 0 00-1.802.163c-.279.27-.41.61-.41 1.012 0 .312.08.584.237.822.156.237.362.41.617.517l1.332.74c-.248.107-.51.164-.774.164-.608 0-1.118-.22-1.546-.657s-.64-.97-.64-1.595.213-1.143.64-1.58c.428-.427.946-.64 1.546-.64.518 0 .978.173 1.373.51.402.337.657.773.764 1.307l-1.34-.763zm9.7 7.885a2.06 2.06 0 01-1.537.64 2.09 2.09 0 01-1.398-.51c-.403-.336-.64-.772-.732-1.306l1.332.766c.214.164.477.247.798.247.395 0 .724-.14.987-.41a1.42 1.42 0 00.403-1.012c0-.31-.082-.583-.238-.82a1.348 1.348 0 00-.617-.52l-1.307-.74c.23-.106.493-.163.773-.163.607 0 1.117.222 1.537.658.42.436.625.97.625 1.595 0 .623-.207 1.15-.626 1.577zm6.653-6.24c-.51.51-1.126.764-1.858.764-.354 0-.69-.065-1.003-.205s-.584-.32-.83-.56a2.491 2.491 0 01-.56-.846 2.774 2.774 0 01-.197-1.045c0-.37.066-.715.197-1.044a2.63 2.63 0 011.39-1.438 2.4 2.4 0 011.002-.206c.73 0 1.347.263 1.857.78.51.52.765 1.16.765 1.91-.008.747-.262 1.38-.764 1.89z" fill="#FFFFFF"></path></svg>