<svg xmlns:xlink="http://www.w3.org/1999/xlink" xmlns="http://www.w3.org/2000/svg" viewBox="0 0 24 24"   fill="currentColor" width="1"  height="1" ><path d="M20.657 7.45c-2.89-3.523-5.89-3.71-6.187-3.71-1.727 0-3.602.562-5.891 2.586-2.399 2.101-3.035 5.289-3.035 5.289s-.79 2.812.449 5.398c1.238 2.59 4.54 4.125 4.54 4.125 1.085.563 4.948 2.438 8.097-.148 3.226-2.664 3.75-6.188 3.75-6.188 0-.601 1.199-3.824-1.723-7.351zm-1.914 10.052h-7.352c-2.812 0-2.734-3-2.734-3V9.404h2.547v5.172c0 .863.902.863.902.863h3.223c1.05 0 .976-.972.976-.972V9.404h2.438zM7.231 5.2c0 2.89-2.965 3-2.965 3s-3-.11-2.886-2.473c.187-3.225 2.85-3.151 2.85-3.151s3-.074 3 2.625zm3.524-2.285c0 .676-.563 1.238-1.239 1.238-.671 0-1.273-.527-1.273-1.238 0-.715.562-1.239 1.238-1.239.676 0 1.274.563 1.274 1.239zm0 0" fill="#FFFFFF"></path></svg>